# xmcd
#
# Track frame offsets:
#	150
#	4004
#	14423
#	16081
#	23901
#	33990
#	42769
#	53506
#	63846
#	73833
#	85624
#	95682
#	106576
#	117363
#	127783
#	137837
#	150778
#	162445
#	170663
#	181086
#	191105
#	202876
#	212230
#	221767
#	231901
#	241484
#	254837
#	264471
#
# Disc length: 3662 seconds
#
# Revision: 0
# Processed by: cddbd v1.5.2PL0 Copyright (c) Steve Scherf et al.
# Submitted via: EZCDAudioConverter 2.2.2.1
#
DISCID=770e4c1c
DTITLE=Daisy Mae - The Friendly Voice From The Hills
DYEAR=1900
DGENRE=Country
TTITLE0=Keep On The Sunny Side (theme) [announcement] (1966)
TTITLE1=Announcement - You Gave My Wedding Ring Away (1966)
TTITLE2=Kwik Pep Eastern Gasoline (jingle) (1966)
TTITLE3=The Boys Across The Street (1965)
TTITLE4=Hold On. Little Dogies, Hold On (1965)
TTITLE5=Let The Spirit Decend (1965)
TTITLE6=Don't Let Me Cross Over (1965)
TTITLE7=Stop Kicking God's Children Around (1965)
TTITLE8=There's A Light Guiding Me (1965)
TTITLE9=No Tears In Heaven (1965)
TTITLE10=Coming To Carry Me Home (1965)
TTITLE11=You Gotta Pay (1966)
TTITLE12=It's Your World (1966)
TTITLE13=Across The Bridge (1966)
TTITLE14=I Don't Love You Anymore (1966)
TTITLE15=The Sweetest Gift, A Mother's Smile (1966)
TTITLE16=Where Could I Go But To The Lord (1966)
TTITLE17=Turn Around My Darling (1966)
TTITLE18=Did You Tell Her About Me (1966)
TTITLE19=Meanwhile Down At Joe's (1966)
TTITLE20=The Last Letter (1966)
TTITLE21=Pretty Words (1966)
TTITLE22=Rock All The Babies To Sleep (1966)
TTITLE23=One More Time (1966)
TTITLE24=Shall We Gather At The River (1966)
TTITLE25=Precious Memories (1966)
TTITLE26=Satan's Jeweled Crown (1966)
TTITLE27=Don't Look Back (1966)
EXTD=
EXTT0=
EXTT1=
EXTT2=
EXTT3=
EXTT4=
EXTT5=
EXTT6=
EXTT7=
EXTT8=
EXTT9=
EXTT10=
EXTT11=
EXTT12=
EXTT13=
EXTT14=
EXTT15=
EXTT16=
EXTT17=
EXTT18=
EXTT19=
EXTT20=
EXTT21=
EXTT22=
EXTT23=
EXTT24=
EXTT25=
EXTT26=
EXTT27=
PLAYORDER=
